<svg width="25" height="21" viewBox="0 0 25 21" fill="none" xmlns="http://www.w3.org/2000/svg">
<path d="M0 2.87642C0.900594 2.25238 1.99775 1.91576 3.125 1.91761H21.875C23.0472 1.91761 24.1292 2.27429 25 2.87642C25 2.49868 24.9192 2.12465 24.7621 1.77566C24.6051 1.42668 24.3749 1.10958 24.0847 0.842484C23.7945 0.575384 23.45 0.363508 23.0709 0.218955C22.6917 0.0744008 22.2854 0 21.875 0H3.125C2.2962 0 1.50134 0.303051 0.915291 0.842484C0.32924 1.38192 0 2.11355 0 2.87642ZM0 6.71165C0.900594 6.08761 1.99775 5.75099 3.125 5.75284H21.875C23.0472 5.75284 24.1292 6.10952 25 6.71165C25 6.33391 24.9192 5.95987 24.7621 5.61089C24.6051 5.26191 24.3749 4.94481 24.0847 4.67771C23.7945 4.41061 23.45 4.19873 23.0709 4.05418C22.6917 3.90963 22.2854 3.83523 21.875 3.83523H3.125C2.2962 3.83523 1.50134 4.13828 0.915291 4.67771C0.32924 5.21714 0 5.94877 0 6.71165ZM8.33333 7.67045C8.70169 7.67045 9.05496 7.80514 9.31543 8.04489C9.57589 8.28464 9.72222 8.60981 9.72222 8.94886C9.72222 9.62697 10.0149 10.2773 10.5358 10.7568C11.0567 11.2363 11.7633 11.5057 12.5 11.5057C13.2367 11.5057 13.9432 11.2363 14.4642 10.7568C14.9851 10.2773 15.2778 9.62697 15.2778 8.94886C15.2778 8.60981 15.4241 8.28464 15.6846 8.04489C15.945 7.80514 16.2983 7.67045 16.6667 7.67045H21.875C22.2854 7.67045 22.6917 7.74486 23.0709 7.88941C23.45 8.03396 23.7945 8.24584 24.0847 8.51294C24.3749 8.78004 24.6051 9.09713 24.7621 9.44612C24.9192 9.7951 25 10.1691 25 10.5469V17.5781C25 17.9559 24.9192 18.3299 24.7621 18.6789C24.6051 19.0279 24.3749 19.345 24.0847 19.6121C23.7945 19.8792 23.45 20.091 23.0709 20.2356C22.6917 20.3801 22.2854 20.4545 21.875 20.4545H3.125C2.2962 20.4545 1.50134 20.1515 0.915291 19.6121C0.32924 19.0726 0 18.341 0 17.5781V10.5469C0 9.784 0.32924 9.05237 0.915291 8.51294C1.50134 7.97351 2.2962 7.67045 3.125 7.67045H8.33333Z" fill="white" fill-opacity="0.25"/>
</svg>
