<svg width="9" height="10" viewBox="0 0 9 10" fill="none" xmlns="http://www.w3.org/2000/svg">
<path d="M9 3.47C8.99483 3.42406 8.98477 3.37881 8.97 3.335V3.29C8.94652 3.23828 8.91439 3.19093 8.875 3.15L5.875 0.15C5.83407 0.11061 5.78672 0.0784839 5.735 0.0549999C5.72009 0.0527371 5.70491 0.0527371 5.69 0.0549999C5.6391 0.0261112 5.58305 0.00742899 5.525 0H3.5C3.10218 0 2.72064 0.158035 2.43934 0.43934C2.15804 0.720644 2 1.10218 2 1.5V2H1.5C1.10218 2 0.720644 2.15804 0.43934 2.43934C0.158035 2.72064 0 3.10218 0 3.5V8.5C0 8.89782 0.158035 9.27936 0.43934 9.56066C0.720644 9.84196 1.10218 10 1.5 10H5.5C5.89782 10 6.27936 9.84196 6.56066 9.56066C6.84196 9.27936 7 8.89782 7 8.5V8H7.5C7.89782 8 8.27936 7.84196 8.56066 7.56066C8.84196 7.27936 9 6.89782 9 6.5V3.47ZM6 1.705L7.295 3H6.5C6.36739 3 6.24021 2.94732 6.14645 2.85355C6.05268 2.75979 6 2.63261 6 2.5V1.705ZM6 8.5C6 8.63261 5.94732 8.75979 5.85355 8.85355C5.75979 8.94732 5.63261 9 5.5 9H1.5C1.36739 9 1.24021 8.94732 1.14645 8.85355C1.05268 8.75979 1 8.63261 1 8.5V3.5C1 3.36739 1.05268 3.24021 1.14645 3.14645C1.24021 3.05268 1.36739 3 1.5 3H2V6.5C2 6.89782 2.15804 7.27936 2.43934 7.56066C2.72064 7.84196 3.10218 8 3.5 8H6V8.5ZM8 6.5C8 6.63261 7.94732 6.75979 7.85355 6.85355C7.75979 6.94732 7.63261 7 7.5 7H3.5C3.36739 7 3.24021 6.94732 3.14645 6.85355C3.05268 6.75979 3 6.63261 3 6.5V1.5C3 1.36739 3.05268 1.24021 3.14645 1.14645C3.24021 1.05268 3.36739 1 3.5 1H5V2.5C5 2.89782 5.15804 3.27936 5.43934 3.56066C5.72064 3.84196 6.10218 4 6.5 4H8V6.5Z" fill="#7E59CA"/>
</svg>
