<svg width="16" height="17" viewBox="0 0 16 17" fill="none" xmlns="http://www.w3.org/2000/svg">
<path d="M5 1.89069C4.73478 1.89069 4.48043 1.99017 4.29289 2.16723C4.10536 2.3443 4 2.58446 4 2.83488C4 3.08529 4.10536 3.32545 4.29289 3.50252C4.48043 3.67959 4.73478 3.77906 5 3.77906C5.26522 3.77906 5.51957 3.67959 5.70711 3.50252C5.89464 3.32545 6 3.08529 6 2.83488C6 2.58446 5.89464 2.3443 5.70711 2.16723C5.51957 1.99017 5.26522 1.89069 5 1.89069ZM2.17 1.89069C2.3766 1.33784 2.75974 0.859101 3.2666 0.520474C3.77346 0.181846 4.37909 0 5 0C5.62091 0 6.22654 0.181846 6.7334 0.520474C7.24026 0.859101 7.6234 1.33784 7.83 1.89069H15C15.2652 1.89069 15.5196 1.99017 15.7071 2.16723C15.8946 2.3443 16 2.58446 16 2.83488C16 3.08529 15.8946 3.32545 15.7071 3.50252C15.5196 3.67959 15.2652 3.77906 15 3.77906H7.83C7.6234 4.33192 7.24026 4.81065 6.7334 5.14928C6.22654 5.48791 5.62091 5.66975 5 5.66975C4.37909 5.66975 3.77346 5.48791 3.2666 5.14928C2.75974 4.81065 2.3766 4.33192 2.17 3.77906H1C0.734784 3.77906 0.48043 3.67959 0.292893 3.50252C0.105357 3.32545 0 3.08529 0 2.83488C0 2.58446 0.105357 2.3443 0.292893 2.16723C0.48043 1.99017 0.734784 1.89069 1 1.89069H2.17ZM11 7.55581C10.7348 7.55581 10.4804 7.65529 10.2929 7.83236C10.1054 8.00943 10 8.24959 10 8.5C10 8.75041 10.1054 8.99057 10.2929 9.16764C10.4804 9.34471 10.7348 9.44419 11 9.44419C11.2652 9.44419 11.5196 9.34471 11.7071 9.16764C11.8946 8.99057 12 8.75041 12 8.5C12 8.24959 11.8946 8.00943 11.7071 7.83236C11.5196 7.65529 11.2652 7.55581 11 7.55581ZM8.17 7.55581C8.3766 7.00296 8.75974 6.52422 9.2666 6.1856C9.77346 5.84697 10.3791 5.66512 11 5.66512C11.6209 5.66512 12.2265 5.84697 12.7334 6.1856C13.2403 6.52422 13.6234 7.00296 13.83 7.55581H15C15.2652 7.55581 15.5196 7.65529 15.7071 7.83236C15.8946 8.00943 16 8.24959 16 8.5C16 8.75041 15.8946 8.99057 15.7071 9.16764C15.5196 9.34471 15.2652 9.44419 15 9.44419H13.83C13.6234 9.99704 13.2403 10.4758 12.7334 10.8144C12.2265 11.153 11.6209 11.3349 11 11.3349C10.3791 11.3349 9.77346 11.153 9.2666 10.8144C8.75974 10.4758 8.3766 9.99704 8.17 9.44419H1C0.734784 9.44419 0.48043 9.34471 0.292893 9.16764C0.105357 8.99057 0 8.75041 0 8.5C0 8.24959 0.105357 8.00943 0.292893 7.83236C0.48043 7.65529 0.734784 7.55581 1 7.55581H8.17ZM5 13.2209C4.73478 13.2209 4.48043 13.3204 4.29289 13.4975C4.10536 13.6746 4 13.9147 4 14.1651C4 14.4155 4.10536 14.6557 4.29289 14.8328C4.48043 15.0098 4.73478 15.1093 5 15.1093C5.26522 15.1093 5.51957 15.0098 5.70711 14.8328C5.89464 14.6557 6 14.4155 6 14.1651C6 13.9147 5.89464 13.6746 5.70711 13.4975C5.51957 13.3204 5.26522 13.2209 5 13.2209ZM2.17 13.2209C2.3766 12.6681 2.75974 12.1893 3.2666 11.8507C3.77346 11.5121 4.37909 11.3302 5 11.3302C5.62091 11.3302 6.22654 11.5121 6.7334 11.8507C7.24026 12.1893 7.6234 12.6681 7.83 13.2209H15C15.2652 13.2209 15.5196 13.3204 15.7071 13.4975C15.8946 13.6746 16 13.9147 16 14.1651C16 14.4155 15.8946 14.6557 15.7071 14.8328C15.5196 15.0098 15.2652 15.1093 15 15.1093H7.83C7.6234 15.6622 7.24026 16.1409 6.7334 16.4795C6.22654 16.8182 5.62091 17 5 17C4.37909 17 3.77346 16.8182 3.2666 16.4795C2.75974 16.1409 2.3766 15.6622 2.17 15.1093H1C0.734784 15.1093 0.48043 15.0098 0.292893 14.8328C0.105357 14.6557 0 14.4155 0 14.1651C0 13.9147 0.105357 13.6746 0.292893 13.4975C0.48043 13.3204 0.734784 13.2209 1 13.2209H2.17Z" fill="white" fill-opacity="0.75"/>
</svg>
