<svg width="27" height="21" viewBox="0 0 27 21" fill="none" xmlns="http://www.w3.org/2000/svg">
<path d="M10.2959 0H15.4433C20.2959 0 22.7229 -1.48879e-07 24.2298 1.46369C25.3159 2.5165 25.6196 4.03265 25.7045 6.55665H0.034668C0.119599 4.03265 0.423293 2.5165 1.50938 1.46369C3.01627 -1.48879e-07 5.44324 0 10.2959 0Z" fill="white" fill-opacity="0.25"/>
<path fill-rule="evenodd" clip-rule="evenodd" d="M25.7367 11.0124L25.2104 10.5016C24.9416 10.2407 24.6224 10.0337 24.2711 9.89245C23.9198 9.75123 23.5433 9.67855 23.1631 9.67855C22.7828 9.67855 22.4063 9.75123 22.055 9.89245C21.7038 10.0337 21.3846 10.2407 21.1157 10.5016L20.085 11.5019C19.8463 10.8859 19.3925 10.3706 18.8026 10.046C18.2127 9.72127 17.5242 9.60773 16.8569 9.72513C16.1896 9.84252 15.586 10.1834 15.151 10.6884C14.7161 11.1934 14.4776 11.8304 14.4769 12.4886V14.6916C13.9351 14.7504 13.4214 14.9565 12.9949 15.2861C12.5684 15.6158 12.2465 16.0556 12.0662 16.5549C11.8859 17.0543 11.8545 17.5929 11.9757 18.1088C12.0969 18.6247 12.3658 19.0969 12.7513 19.4711L13.2776 19.9819H10.2947C5.44203 19.9819 3.01506 19.9819 1.50817 18.5182C0.00128674 17.0545 0 14.7003 0 9.99079C0 9.43962 0.000858012 8.91925 0.00257379 8.42969H25.7342C25.7359 8.91925 25.7367 9.43962 25.7367 9.99079V11.0124ZM5.14735 14.0497C4.89138 14.0497 4.6459 14.1484 4.4649 14.324C4.2839 14.4997 4.18222 14.7379 4.18222 14.9863C4.18222 15.2348 4.2839 15.473 4.4649 15.6487C4.6459 15.8243 4.89138 15.923 5.14735 15.923H10.2947C10.5507 15.923 10.7961 15.8243 10.9771 15.6487C11.1581 15.473 11.2598 15.2348 11.2598 14.9863C11.2598 14.7379 11.1581 14.4997 10.9771 14.324C10.7961 14.1484 10.5507 14.0497 10.2947 14.0497H5.14735Z" fill="white" fill-opacity="0.25"/>
<path fill-rule="evenodd" clip-rule="evenodd" d="M17.372 11.5518C17.6279 11.5518 17.8734 11.6504 18.0544 11.8261C18.2354 12.0018 18.3371 12.24 18.3371 12.4884V17.7213L19.2636 16.8221C19.352 16.73 19.4585 16.6562 19.5769 16.605C19.6953 16.5538 19.8231 16.5263 19.9527 16.5241C20.0823 16.5219 20.211 16.545 20.3312 16.5921C20.4513 16.6392 20.5605 16.7093 20.6522 16.7983C20.7438 16.8872 20.8161 16.9932 20.8646 17.1098C20.9131 17.2264 20.937 17.3514 20.9347 17.4771C20.9324 17.6029 20.904 17.7269 20.8513 17.8418C20.7985 17.9567 20.7225 18.0601 20.6277 18.1459L18.054 20.6436C17.873 20.8191 17.6277 20.9176 17.372 20.9176C17.1162 20.9176 16.8709 20.8191 16.6899 20.6436L14.1163 18.1459C14.0214 18.0601 13.9454 17.9567 13.8926 17.8418C13.8399 17.7269 13.8115 17.6029 13.8092 17.4771C13.8069 17.3514 13.8308 17.2264 13.8793 17.1098C13.9279 16.9932 14.0001 16.8872 14.0918 16.7983C14.1834 16.7093 14.2926 16.6392 14.4128 16.5921C14.5329 16.545 14.6616 16.5219 14.7912 16.5241C14.9208 16.5263 15.0486 16.5538 15.167 16.605C15.2854 16.6562 15.392 16.73 15.4803 16.8221L16.4068 17.7213V12.4884C16.4068 12.24 16.5085 12.0018 16.6895 11.8261C16.8705 11.6504 17.116 11.5518 17.372 11.5518ZM22.4807 11.8265C22.6617 11.6511 22.907 11.5526 23.1627 11.5526C23.4185 11.5526 23.6638 11.6511 23.8447 11.8265L26.4184 14.3243C26.5132 14.41 26.5893 14.5134 26.642 14.6283C26.6948 14.7432 26.7232 14.8673 26.7254 14.993C26.7277 15.1188 26.7039 15.2437 26.6554 15.3604C26.6068 15.477 26.5346 15.5829 26.4429 15.6719C26.3513 15.7608 26.2421 15.8309 26.1219 15.8781C26.0018 15.9252 25.873 15.9483 25.7434 15.9461C25.6139 15.9439 25.4861 15.9163 25.3677 15.8651C25.2493 15.8139 25.1427 15.7401 25.0544 15.6481L24.1279 14.7489V19.9817C24.1279 20.2302 24.0262 20.4684 23.8452 20.6441C23.6642 20.8197 23.4187 20.9184 23.1627 20.9184C22.9068 20.9184 22.6613 20.8197 22.4803 20.6441C22.2993 20.4684 22.1976 20.2302 22.1976 19.9817V14.7489L21.2711 15.6481C21.1827 15.7401 21.0762 15.8139 20.9578 15.8651C20.8394 15.9163 20.7116 15.9439 20.582 15.9461C20.4524 15.9483 20.3237 15.9252 20.2035 15.8781C20.0833 15.8309 19.9742 15.7608 19.8825 15.6719C19.7909 15.5829 19.7186 15.477 19.6701 15.3604C19.6216 15.2437 19.5977 15.1188 19.6 14.993C19.6023 14.8673 19.6306 14.7432 19.6834 14.6283C19.7361 14.5134 19.8122 14.41 19.907 14.3243L22.4807 11.8265Z" fill="white" fill-opacity="0.25"/>
</svg>
