<svg width="16" height="10" viewBox="0 0 16 10" fill="none" xmlns="http://www.w3.org/2000/svg">
<path fill-rule="evenodd" clip-rule="evenodd" d="M2.00667 9.64003C1.78622 9.87051 1.48723 10 1.17548 10C0.863722 10 0.564734 9.87051 0.344289 9.64003C0.123845 9.40954 0 9.09693 0 8.77098C0 8.44502 0.123845 8.13241 0.344289 7.90192L4.25998 3.80909L4.2682 3.80049C4.58813 3.47286 5.01812 3.28937 5.46594 3.28937C5.91376 3.28937 6.34374 3.47286 6.66367 3.80049L6.67189 3.80909L8.67027 5.8985L11.4276 2.84975L10.2058 1.57228C10.0827 1.44344 9.9989 1.27936 9.96497 1.10076C9.93103 0.922162 9.94848 0.737054 10.0151 0.568816C10.0817 0.400578 10.1945 0.256757 10.3393 0.155517C10.4841 0.0542776 10.6543 0.00016016 10.8284 0H15.1189C15.3526 0 15.5767 0.0970605 15.7419 0.26983C15.9072 0.442599 16 0.676924 16 0.921256V5.40716C15.9998 5.58925 15.9481 5.76721 15.8513 5.91856C15.7544 6.06991 15.6169 6.18786 15.456 6.25753C15.2951 6.32719 15.118 6.34543 14.9472 6.30995C14.7764 6.27447 14.6194 6.18686 14.4962 6.05818L13.09 4.58663L9.91323 8.10091C9.75627 8.27031 9.56883 8.40559 9.36169 8.49899C9.15455 8.59238 8.9318 8.64205 8.70624 8.64513C8.48068 8.64821 8.25676 8.60465 8.04735 8.51694C7.83795 8.42924 7.64719 8.29913 7.48605 8.13408L7.47782 8.12548L5.46535 6.02256L2.00667 9.64003Z" fill="#44EC60"/>
</svg>
