<svg width="13" height="13" viewBox="0 0 13 13" fill="none" xmlns="http://www.w3.org/2000/svg">
<path d="M6.40775 4.875L8.12484 6.58667V6.5C8.12484 6.06902 7.95363 5.6557 7.64889 5.35095C7.34414 5.0462 6.93081 4.875 6.49984 4.875H6.40775ZM4.07859 5.30833L4.91817 6.14792C4.89109 6.26167 4.87484 6.37542 4.87484 6.5C4.87484 6.93098 5.04604 7.3443 5.35079 7.64905C5.65553 7.95379 6.06886 8.125 6.49984 8.125C6.619 8.125 6.73817 8.10875 6.85192 8.08167L7.6915 8.92125C7.32859 9.1 6.92775 9.20833 6.49984 9.20833C5.78154 9.20833 5.09267 8.92299 4.58476 8.41508C4.07685 7.90717 3.7915 7.21829 3.7915 6.5C3.7915 6.07208 3.89984 5.67125 4.07859 5.30833ZM1.08317 2.31292L2.31817 3.54792L2.56192 3.79167C1.66817 4.49583 0.964004 5.41667 0.541504 6.5C1.47859 8.87792 3.7915 10.5625 6.49984 10.5625C7.33942 10.5625 8.14109 10.4 8.87234 10.1075L9.10525 10.335L10.6869 11.9167L11.3748 11.2287L1.77109 1.625M6.49984 3.79167C7.21813 3.79167 7.90701 4.07701 8.41492 4.58492C8.92283 5.09283 9.20817 5.7817 9.20817 6.5C9.20817 6.84667 9.13775 7.1825 9.01317 7.48583L10.6003 9.07292C11.4128 8.39583 12.0628 7.5075 12.4582 6.5C11.5211 4.12208 9.20817 2.4375 6.49984 2.4375C5.7415 2.4375 5.01567 2.57292 4.33317 2.81667L5.50859 3.98125C5.81734 3.86208 6.14775 3.79167 6.49984 3.79167Z" fill="white" fill-opacity="0.75"/>
</svg>
