<svg width="21" height="20" viewBox="0 0 21 20" fill="none" xmlns="http://www.w3.org/2000/svg">
<path d="M3.03333 0C2.22884 0 1.4573 0.273928 0.888443 0.761522C0.319582 1.24912 0 1.91044 0 2.6V7.4C0 7.74144 0.0784594 8.07953 0.230899 8.39498C0.383338 8.71042 0.606772 8.99705 0.888443 9.23848C1.4573 9.72607 2.22884 10 3.03333 10H6.3C7.10449 10 7.87603 9.72607 8.44489 9.23848C9.01375 8.75088 9.33333 8.08956 9.33333 7.4V2.6C9.33333 1.91044 9.01375 1.24912 8.44489 0.761522C7.87603 0.273928 7.10449 0 6.3 0H3.03333ZM3.03333 12C2.22884 12 1.4573 12.2739 0.888443 12.7615C0.319582 13.2491 0 13.9104 0 14.6V17.4C0 18.0896 0.319582 18.7509 0.888443 19.2385C1.4573 19.7261 2.22884 20 3.03333 20H6.3C7.10449 20 7.87603 19.7261 8.44489 19.2385C9.01375 18.7509 9.33333 18.0896 9.33333 17.4V14.6C9.33333 13.9104 9.01375 13.2491 8.44489 12.7615C7.87603 12.2739 7.10449 12 6.3 12H3.03333ZM14.7 0C13.8955 0 13.124 0.273928 12.5551 0.761522C11.9862 1.24912 11.6667 1.91044 11.6667 2.6V5.4C11.6667 6.08956 11.9862 6.75088 12.5551 7.23848C13.124 7.72607 13.8955 8 14.7 8H17.9667C18.365 8 18.7595 7.93275 19.1275 7.80209C19.4955 7.67142 19.8299 7.47991 20.1116 7.23848C20.3932 6.99705 20.6167 6.71042 20.7691 6.39498C20.9215 6.07953 21 5.74144 21 5.4V2.6C21 2.25856 20.9215 1.92047 20.7691 1.60502C20.6167 1.28958 20.3932 1.00295 20.1116 0.761522C19.8299 0.52009 19.4955 0.328575 19.1275 0.197913C18.7595 0.0672509 18.365 0 17.9667 0H14.7ZM14.7 10C13.8955 10 13.124 10.2739 12.5551 10.7615C11.9862 11.2491 11.6667 11.9104 11.6667 12.6V17.4C11.6667 18.0896 11.9862 18.7509 12.5551 19.2385C13.124 19.7261 13.8955 20 14.7 20H17.9667C18.365 20 18.7595 19.9327 19.1275 19.8021C19.4955 19.6714 19.8299 19.4799 20.1116 19.2385C20.3932 18.997 20.6167 18.7104 20.7691 18.395C20.9215 18.0795 21 17.7414 21 17.4V12.6C21 12.2586 20.9215 11.9205 20.7691 11.605C20.6167 11.2896 20.3932 11.003 20.1116 10.7615C19.8299 10.5201 19.4955 10.3286 19.1275 10.1979C18.7595 10.0673 18.365 10 17.9667 10H14.7Z" fill="white" fill-opacity="0.6"/>
</svg>
