<svg width="4" height="7" viewBox="0 0 4 7" fill="none" xmlns="http://www.w3.org/2000/svg">
<path d="M0.15296 0.154081C0.0550201 0.252768 4.59938e-07 0.3866 4.53839e-07 0.526144C4.47739e-07 0.665688 0.0550201 0.79952 0.15296 0.898207L2.73897 3.50318L0.15296 6.10815C0.0577955 6.2074 0.00513764 6.34033 0.00632806 6.47832C0.00751824 6.6163 0.0624613 6.74829 0.159323 6.84586C0.256186 6.94344 0.387217 6.99878 0.524196 6.99998C0.661174 7.00118 0.79314 6.94814 0.891671 6.85227L3.84704 3.87524C3.94498 3.77655 4 3.64272 4 3.50318C4 3.36363 3.94498 3.2298 3.84704 3.13111L0.891671 0.154081C0.793702 0.0554228 0.660845 -1.45959e-07 0.522316 -1.52014e-07C0.383787 -1.5807e-07 0.25093 0.0554228 0.15296 0.154081Z" fill="#9070D1"/>
</svg>
