<svg width="46" height="46" viewBox="0 0 46 46" fill="none" xmlns="http://www.w3.org/2000/svg">
<circle cx="23" cy="23" r="23" fill="black"/>
<path d="M21.1389 14.4633C21.6122 12.5122 24.3878 12.5122 24.8611 14.4633C24.9321 14.7564 25.0714 15.0286 25.2675 15.2578C25.4636 15.4869 25.711 15.6665 25.9896 15.7819C26.2682 15.8974 26.5702 15.9454 26.8709 15.9221C27.1716 15.8988 27.4625 15.8048 27.72 15.6478C29.4344 14.6033 31.3978 16.5656 30.3533 18.2811C30.1966 18.5385 30.1027 18.8293 30.0795 19.1297C30.0562 19.4302 30.1042 19.732 30.2195 20.0104C30.3348 20.2889 30.5142 20.5362 30.743 20.7323C30.9719 20.9284 31.2438 21.0677 31.5367 21.1389C33.4878 21.6122 33.4878 24.3878 31.5367 24.8611C31.2436 24.9321 30.9714 25.0714 30.7422 25.2675C30.5131 25.4636 30.3335 25.711 30.2181 25.9896C30.1026 26.2682 30.0546 26.5702 30.0779 26.8709C30.1012 27.1716 30.1952 27.4625 30.3522 27.72C31.3967 29.4344 29.4344 31.3978 27.7189 30.3533C27.4615 30.1966 27.1707 30.1027 26.8703 30.0795C26.5698 30.0562 26.268 30.1042 25.9896 30.2195C25.7111 30.3348 25.4638 30.5142 25.2677 30.743C25.0716 30.9719 24.9323 31.2438 24.8611 31.5367C24.3878 33.4878 21.6122 33.4878 21.1389 31.5367C21.0679 31.2436 20.9286 30.9714 20.7325 30.7422C20.5364 30.5131 20.289 30.3335 20.0104 30.2181C19.7318 30.1026 19.4298 30.0546 19.1291 30.0779C18.8284 30.1012 18.5375 30.1952 18.28 30.3522C16.5656 31.3967 14.6022 29.4344 15.6467 27.7189C15.8034 27.4615 15.8973 27.1707 15.9205 26.8703C15.9438 26.5698 15.8958 26.268 15.7805 25.9896C15.6652 25.7111 15.4858 25.4638 15.257 25.2677C15.0281 25.0716 14.7562 24.9323 14.4633 24.8611C12.5122 24.3878 12.5122 21.6122 14.4633 21.1389C14.7564 21.0679 15.0286 20.9286 15.2578 20.7325C15.4869 20.5364 15.6665 20.289 15.7819 20.0104C15.8974 19.7318 15.9454 19.4298 15.9221 19.1291C15.8988 18.8284 15.8048 18.5375 15.6478 18.28C14.6033 16.5656 16.5656 14.6022 18.2811 15.6467C19.3922 16.3222 20.8322 15.7244 21.1389 14.4633Z" stroke="white" stroke-width="1.5" stroke-linecap="round" stroke-linejoin="round"/>
<path d="M19.6665 23.0003C19.6665 23.8844 20.0177 24.7322 20.6428 25.3573C21.2679 25.9825 22.1158 26.3337 22.9998 26.3337C23.8839 26.3337 24.7317 25.9825 25.3569 25.3573C25.982 24.7322 26.3332 23.8844 26.3332 23.0003C26.3332 22.1163 25.982 21.2684 25.3569 20.6433C24.7317 20.0182 23.8839 19.667 22.9998 19.667C22.1158 19.667 21.2679 20.0182 20.6428 20.6433C20.0177 21.2684 19.6665 22.1163 19.6665 23.0003Z" stroke="white" stroke-width="1.5" stroke-linecap="round" stroke-linejoin="round"/>
</svg>
