<svg width="25" height="25" viewBox="0 0 25 25" fill="none" xmlns="http://www.w3.org/2000/svg">
<path d="M24.2608 8.28771V8.22503C23.3783 5.81327 21.7771 3.73102 19.6736 2.25996C17.5701 0.788891 15.066 0 12.5 0C9.93397 0 7.42986 0.788891 5.3264 2.25996C3.22295 3.73102 1.62166 5.81327 0.739162 8.22503C0.739162 8.22503 0.739162 8.22503 0.739162 8.28771C-0.246387 11.0093 -0.246387 13.9907 0.739162 16.7123V16.775C1.62166 19.1867 3.22295 21.269 5.3264 22.74C7.42986 24.2111 9.93397 25 12.5 25C15.066 25 17.5701 24.2111 19.6736 22.74C21.7771 21.269 23.3783 19.1867 24.2608 16.775C24.2608 16.775 24.2608 16.775 24.2608 16.7123C25.2464 13.9907 25.2464 11.0093 24.2608 8.28771ZM2.78071 15.0073C2.34523 13.3642 2.34523 11.6358 2.78071 9.99269H5.11034C4.90962 11.6582 4.90962 13.3418 5.11034 15.0073H2.78071ZM3.80775 17.5146H5.56123C5.85364 18.6332 6.27391 19.7143 6.81372 20.7365C5.5854 19.899 4.55861 18.7984 3.80775 17.5146ZM5.56123 7.48537H3.80775C4.54781 6.20549 5.56147 5.10526 6.77614 4.26347C6.24929 5.28735 5.84165 6.3684 5.56123 7.48537ZM11.2225 22.1532C9.68412 21.0232 8.6037 19.3766 8.17893 17.5146H11.2225V22.1532ZM11.2225 15.0073H7.64036C7.40729 13.3439 7.40729 11.6561 7.64036 9.99269H11.2225V15.0073ZM11.2225 7.48537H8.17893C8.6037 5.6234 9.68412 3.97678 11.2225 2.84684V7.48537ZM21.1421 7.48537H19.3887C19.0963 6.3668 18.676 5.28569 18.1362 4.26347C19.3645 5.101 20.3913 6.20155 21.1421 7.48537ZM13.7274 2.84684C15.2658 3.97678 16.3462 5.6234 16.771 7.48537H13.7274V2.84684ZM13.7274 22.1532V17.5146H16.771C16.3462 19.3766 15.2658 21.0232 13.7274 22.1532ZM17.3095 15.0073H13.7274V9.99269H17.3095C17.5426 11.6561 17.5426 13.3439 17.3095 15.0073ZM18.1738 20.7365C18.7136 19.7143 19.1338 18.6332 19.4262 17.5146H21.1797C20.4289 18.7984 19.4021 19.899 18.1738 20.7365ZM22.1692 15.0073H19.8396C19.9419 14.1755 19.9921 13.3381 19.9899 12.5C19.9921 11.6619 19.9419 10.8245 19.8396 9.99269H22.1692C22.6047 11.6358 22.6047 13.3642 22.1692 15.0073Z" fill="white" fill-opacity="0.25"/>
</svg>
